<svg version="1.1" xmlns="http://www.w3.org/2000/svg" viewBox="0 0 8439.06483145926 5728.4226437708485" width="16878.12966291852" height="11456.845287541697">
  <!-- svg-source:excalidraw -->
  
  <defs>
    <style class="style-fonts">
      @font-face {
        font-family: "Virgil";
        src: url("https://excalidraw.com/Virgil.woff2");
      }
      @font-face {
        font-family: "Cascadia";
        src: url("https://excalidraw.com/Cascadia.woff2");
      }
    </style>
    
  </defs>
  <rect x="0" y="0" width="8439.06483145926" height="5728.4226437708485" fill="#f8f9fa"></rect><g stroke-linecap="round" transform="translate(10 3910.327617280472) rotate(0 193.9514700464233 394.1064678271639)"><path d="M32 0 C136 -2.89, 239.58 -1.39, 355.9 0 M32 0 C143.06 0.71, 254.91 0.8, 355.9 0 M355.9 0 C378.02 1.55, 387.3 11.99, 387.9 32 M355.9 0 C375.67 0.41, 385.74 12.46, 387.9 32 M387.9 32 C390.99 293.18, 390.42 556.08, 387.9 756.21 M387.9 32 C388.61 233, 388.72 435.03, 387.9 756.21 M387.9 756.21 C388.95 777.65, 376.24 786.73, 355.9 788.21 M387.9 756.21 C387.74 775.49, 375.2 787.78, 355.9 788.21 M355.9 788.21 C259.66 787.27, 162.96 787.32, 32 788.21 M355.9 788.21 C277.09 789.48, 199.46 788.71, 32 788.21 M32 788.21 C9.79 788.78, -1.47 776.53, 0 756.21 M32 788.21 C9.93 787.4, -1.07 778.28, 0 756.21 M0 756.21 C-1.45 547.32, -1.52 339.23, 0 32 M0 756.21 C-0.37 558.9, -0.26 361.59, 0 32 M0 32 C1.38 10.85, 9.52 -0.26, 32 0 M0 32 C0.55 10.05, 11.04 0.42, 32 0" stroke="#1e1e1e" stroke-width="1" fill="none"></path></g><g stroke-linecap="round" transform="translate(563.9609655544664 3913.4161542044562) rotate(0 178.47686134152082 388.1538180526911)"><path d="M32 0 C123.78 -1.68, 215.02 -1.91, 324.95 0 M32 0 C146.4 -1.34, 262.97 -2.16, 324.95 0 M324.95 0 C346.86 0.44, 358.35 11.03, 356.95 32 M324.95 0 C347.39 -1.63, 354.75 9.32, 356.95 32 M356.95 32 C357.68 262.24, 358.74 491.28, 356.95 744.31 M356.95 32 C357.47 196.82, 356.95 361.15, 356.95 744.31 M356.95 744.31 C358.07 766.34, 345.23 774.32, 324.95 776.31 M356.95 744.31 C355.72 764.41, 347.53 777.38, 324.95 776.31 M324.95 776.31 C239.12 774.38, 153.81 774.16, 32 776.31 M324.95 776.31 C233.67 778.15, 142.23 778.03, 32 776.31 M32 776.31 C8.87 774.48, -1.55 765.3, 0 744.31 M32 776.31 C12.29 776.96, -0.58 765.6, 0 744.31 M0 744.31 C-2.05 563, -2.02 381.75, 0 32 M0 744.31 C-0.14 578.58, -0.08 412.77, 0 32 M0 32 C0.52 9.12, 9.22 -1.84, 32 0 M0 32 C-2.22 10.15, 11.9 1.24, 32 0" stroke="#1e1e1e" stroke-width="1" fill="none"></path></g><g stroke-linecap="round" transform="translate(1071.1677790966132 3923.81618599434) rotate(0 191.2830408371774 370.1134120312047)"><path d="M32 0 C145.72 -1.01, 256 0.48, 350.57 0 M32 0 C131.03 -1.21, 228.74 -0.53, 350.57 0 M350.57 0 C373.57 0.57, 383.73 9.51, 382.57 32 M350.57 0 C370.96 -2.17, 381.8 12.75, 382.57 32 M382.57 32 C380.36 271.39, 381.03 510.6, 382.57 708.23 M382.57 32 C380.16 267.93, 380.61 503.33, 382.57 708.23 M382.57 708.23 C381.39 728.11, 370.86 741.62, 350.57 740.23 M382.57 708.23 C380.99 727.78, 371.49 742.44, 350.57 740.23 M350.57 740.23 C235.52 738.79, 120.98 739.51, 32 740.23 M350.57 740.23 C228.61 738.91, 106.18 738.39, 32 740.23 M32 740.23 C11.86 738.89, -0.08 730.41, 0 708.23 M32 740.23 C9.89 742.49, -1.59 728.17, 0 708.23 M0 708.23 C2.11 439.18, 2.71 170.18, 0 32 M0 708.23 C0.07 475.87, 0.2 243.97, 0 32 M0 32 C0.3 11.86, 9.18 -0.28, 32 0 M0 32 C-0.26 12.22, 12.81 1.44, 32 0" stroke="#1e1e1e" stroke-width="1" fill="none"></path></g><g stroke-linecap="round"><g transform="translate(1661.5520398705703 4269.411979222639) rotate(0 277.42424095765546 -0.07475119790319695)"><path d="M0.03 -0.05 C92.55 -0.06, 462.46 0.07, 554.97 0.06 M-0.13 -0.21 C92.38 -0.2, 462.31 -0.2, 554.84 -0.17" stroke="#1e1e1e" stroke-width="1" fill="none"></path></g><g transform="translate(1661.5520398705703 4269.411979222639) rotate(0 277.42424095765546 -0.07475119790319695)"><path d="M526.65 10.09 C532.57 7.81, 538.81 5.9, 554.84 -0.17 M526.65 10.09 C532.51 7.89, 538.38 5.77, 554.84 -0.17" stroke="#1e1e1e" stroke-width="1" fill="none"></path></g><g transform="translate(1661.5520398705703 4269.411979222639) rotate(0 277.42424095765546 -0.07475119790319695)"><path d="M526.65 -10.44 C532.59 -8.32, 538.84 -5.84, 554.84 -0.17 M526.65 -10.44 C532.54 -8.4, 538.4 -6.29, 554.84 -0.17" stroke="#1e1e1e" stroke-width="1" fill="none"></path></g></g><mask></mask><g stroke-linecap="round" transform="translate(2330.415487901084 3885.523086487291) rotate(0 193.9514700464233 394.1064678271641)"><path d="M32 0 C151.26 -0.36, 268.69 1.02, 355.9 0 M32 0 C158.6 0.69, 283.61 0.93, 355.9 0 M355.9 0 C378.21 -1.92, 387.36 10.2, 387.9 32 M355.9 0 C375.84 1.55, 388.58 10.49, 387.9 32 M387.9 32 C387.88 320.18, 389.04 607.22, 387.9 756.21 M387.9 32 C388.73 320.43, 388.84 608.67, 387.9 756.21 M387.9 756.21 C388.4 777.21, 376.97 787.54, 355.9 788.21 M387.9 756.21 C389.08 778.61, 376.7 789.06, 355.9 788.21 M355.9 788.21 C268.48 788.26, 179.72 788.64, 32 788.21 M355.9 788.21 C273.61 787.1, 192.17 787.53, 32 788.21 M32 788.21 C11.52 787.97, -1.98 775.63, 0 756.21 M32 788.21 C11.67 787.44, -0.03 776.27, 0 756.21 M0 756.21 C1.68 602, 2.74 446.16, 0 32 M0 756.21 C-0.6 580.07, -0.77 404.31, 0 32 M0 32 C0.37 11.03, 11.87 0.54, 32 0 M0 32 C-0.32 11.89, 12.65 1.93, 32 0" stroke="#1e1e1e" stroke-width="1" fill="none"></path></g><g stroke-linecap="round" transform="translate(2838.169671537433 3896.1055749752422) rotate(0 178.47686134152082 388.15381805269135)"><path d="M32 0 C108.05 2.12, 185.5 2.3, 324.95 0 M32 0 C103.28 1.4, 175.72 1.02, 324.95 0 M324.95 0 C345.74 -0.47, 355.74 12.02, 356.95 32 M324.95 0 C346.96 -0.17, 359.19 11.18, 356.95 32 M356.95 32 C355.09 236.95, 355.38 442.71, 356.95 744.31 M356.95 32 C357.35 289.87, 357.3 547.81, 356.95 744.31 M356.95 744.31 C356.69 764.96, 347.31 777.23, 324.95 776.31 M356.95 744.31 C356.42 766.49, 345.6 778.24, 324.95 776.31 M324.95 776.31 C236.25 776.95, 149.6 776.86, 32 776.31 M324.95 776.31 C248.49 775.68, 171.73 775.41, 32 776.31 M32 776.31 C8.69 774.39, 0.87 764.97, 0 744.31 M32 776.31 C10.64 775.03, -1.98 763.81, 0 744.31 M0 744.31 C2.68 551.68, 1.78 359.42, 0 32 M0 744.31 C-2.35 490.17, -2.46 236.13, 0 32 M0 32 C1.2 11.2, 10.39 1.06, 32 0 M0 32 C1.98 12.6, 9.27 2.18, 32 0" stroke="#1e1e1e" stroke-width="1" fill="none"></path></g><g stroke-linecap="round" transform="translate(3345.3764850795797 3906.505606765126) rotate(0 191.2830408371774 370.1134120312047)"><path d="M32 0 C99.73 0.1, 164.19 1.03, 350.57 0 M32 0 C102.52 0.34, 172.16 0.85, 350.57 0 M350.57 0 C370.69 1.35, 383.15 10.52, 382.57 32 M350.57 0 C374.14 0.51, 382.29 8.76, 382.57 32 M382.57 32 C385.02 270.61, 384.73 508.85, 382.57 708.23 M382.57 32 C383.65 245.47, 383.5 458.95, 382.57 708.23 M382.57 708.23 C383.59 730.49, 371.44 740.96, 350.57 740.23 M382.57 708.23 C381.88 731.49, 371.86 740.28, 350.57 740.23 M350.57 740.23 C252.27 741.37, 154.75 740.41, 32 740.23 M350.57 740.23 C267.09 740.68, 182.32 740.09, 32 740.23 M32 740.23 C11.54 739.55, -0.02 728.45, 0 708.23 M32 740.23 C8.69 738.4, -0.68 727.75, 0 708.23 M0 708.23 C-1.94 439.11, -1.03 170.18, 0 32 M0 708.23 C-1.19 538.84, -1.02 369.42, 0 32 M0 32 C-0.27 11.73, 12.39 1.68, 32 0 M0 32 C-1.4 12.85, 9.07 -0.32, 32 0" stroke="#1e1e1e" stroke-width="1" fill="none"></path></g><g transform="translate(94.08485004147587 3564.227708808218) rotate(0 107.54723358154297 103.65245880340967)"><text x="0" y="0" font-family="Virgil, Segoe UI Emoji" font-size="165.8439340854556px" fill="#1e1e1e" text-anchor="start" style="white-space: pre;" direction="ltr" dominant-baseline="text-before-edge">90</text></g><g transform="translate(615.8324734649723 3569.5819172533515) rotate(0 108.29351806640625 103.65245880340967)"><text x="0" y="0" font-family="Virgil, Segoe UI Emoji" font-size="165.8439340854556px" fill="#1e1e1e" text-anchor="start" style="white-space: pre;" direction="ltr" dominant-baseline="text-before-edge">50</text></g><g transform="translate(1127.3817814258891 3587.4858229795454) rotate(0 79.52027130126953 103.65245880340967)"><text x="0" y="0" font-family="Virgil, Segoe UI Emoji" font-size="165.8439340854556px" fill="#1e1e1e" text-anchor="start" style="white-space: pre;" direction="ltr" dominant-baseline="text-before-edge">10</text></g><g transform="translate(2400.4184806666435 3558.133101677833) rotate(0 79.52027130126953 103.65245880340967)"><text x="0" y="0" font-family="Virgil, Segoe UI Emoji" font-size="165.8439340854556px" fill="#1e1e1e" text-anchor="start" style="white-space: pre;" direction="ltr" dominant-baseline="text-before-edge">10</text></g><g transform="translate(2858.0291767766266 3536.9225105274136) rotate(0 108.29351806640625 103.65245880340967)"><text x="0" y="0" font-family="Virgil, Segoe UI Emoji" font-size="165.8439340854556px" fill="#1e1e1e" text-anchor="start" style="white-space: pre;" direction="ltr" dominant-baseline="text-before-edge">50</text></g><g transform="translate(3363.2454243326138 3564.95242076813) rotate(0 107.54723358154297 103.65245880340967)"><text x="0" y="0" font-family="Virgil, Segoe UI Emoji" font-size="165.8439340854556px" fill="#1e1e1e" text-anchor="start" style="white-space: pre;" direction="ltr" dominant-baseline="text-before-edge">90</text></g><g stroke-linecap="round"><g transform="translate(3892.1764021025083 4223.501312571245) rotate(0 377.51006843043433 5.774502812898163)"><path d="M0.02 0.1 C125.87 2.03, 629.3 9.65, 755.2 11.55 M-0.18 0 C125.63 1.87, 629.1 9.3, 755.03 11.26" stroke="#1e1e1e" stroke-width="1" fill="none"></path></g><g transform="translate(3892.1764021025083 4223.501312571245) rotate(0 377.51006843043433 5.774502812898163)"><path d="M726.69 21.09 C737.08 17.4, 747.14 14.28, 755.03 11.26 M726.69 21.09 C735.49 18.03, 744.19 14.94, 755.03 11.26" stroke="#1e1e1e" stroke-width="1" fill="none"></path></g><g transform="translate(3892.1764021025083 4223.501312571245) rotate(0 377.51006843043433 5.774502812898163)"><path d="M727 0.57 C737.27 4.27, 747.22 8.52, 755.03 11.26 M727 0.57 C735.72 3.79, 744.32 6.98, 755.03 11.26" stroke="#1e1e1e" stroke-width="1" fill="none"></path></g></g><mask></mask><g stroke-linecap="round" transform="translate(4757.329046623441 3917.1080259470614) rotate(0 193.9514700464233 394.1064678271639)"><path d="M32 0 C130.03 0.35, 228.27 1.74, 355.9 0 M32 0 C111.35 0.32, 190.65 0.47, 355.9 0 M355.9 0 C375.24 1.47, 389.4 11.24, 387.9 32 M355.9 0 C378.71 1.87, 386.28 11.27, 387.9 32 M387.9 32 C387.58 203.52, 386.79 373.91, 387.9 756.21 M387.9 32 C387.44 236.57, 387.21 440.75, 387.9 756.21 M387.9 756.21 C387.02 778.6, 375.89 787.88, 355.9 788.21 M387.9 756.21 C389.88 778.5, 379.5 787.66, 355.9 788.21 M355.9 788.21 C281.06 788.02, 206.7 787.62, 32 788.21 M355.9 788.21 C245.89 790.18, 135.95 789.71, 32 788.21 M32 788.21 C10.21 787.82, 0.82 776.91, 0 756.21 M32 788.21 C9.4 788.28, 1.99 776.29, 0 756.21 M0 756.21 C-1.61 602.94, -0.72 448.42, 0 32 M0 756.21 C0.29 565.92, 0.45 376.14, 0 32 M0 32 C-1.39 9.38, 10.4 -1.9, 32 0 M0 32 C-1.19 10.24, 8.74 -0.01, 32 0" stroke="#1e1e1e" stroke-width="1" fill="none"></path></g><g stroke-linecap="round" transform="translate(5265.08323025979 3927.690514435013) rotate(0 178.47686134152082 388.15381805269135)"><path d="M32 0 C110.63 1.73, 185.84 1.01, 324.95 0 M32 0 C114.58 0.29, 196.85 0.76, 324.95 0 M324.95 0 C347.78 0.57, 358.24 12.29, 356.95 32 M324.95 0 C344.66 0.6, 355.48 10.25, 356.95 32 M356.95 32 C357.09 226.04, 357.53 420.19, 356.95 744.31 M356.95 32 C356.45 210.27, 356.54 388.21, 356.95 744.31 M356.95 744.31 C355.61 765.31, 348.01 777.14, 324.95 776.31 M356.95 744.31 C359.22 765.09, 344.71 774.86, 324.95 776.31 M324.95 776.31 C255.74 778.98, 185.37 779.34, 32 776.31 M324.95 776.31 C220.37 778.49, 114.25 778.17, 32 776.31 M32 776.31 C11.48 775.67, -1.1 765.7, 0 744.31 M32 776.31 C12.66 775.05, -2.02 766.53, 0 744.31 M0 744.31 C2.16 578.09, 1.46 412.96, 0 32 M0 744.31 C1.48 543.41, 1.26 341.74, 0 32 M0 32 C-0.27 8.77, 9.63 -0.37, 32 0 M0 32 C-1.93 10.66, 8.66 1.19, 32 0" stroke="#1e1e1e" stroke-width="1" fill="none"></path></g><g stroke-linecap="round" transform="translate(5772.290043801941 3938.0905462248966) rotate(0 191.2830408371774 370.1134120312047)"><path d="M32 0 C116.18 -1.23, 201.65 -1.66, 350.57 0 M32 0 C123.76 0.28, 217.44 -0.04, 350.57 0 M350.57 0 C373.18 1.63, 381.15 11.19, 382.57 32 M350.57 0 C370.43 -0.42, 381.94 11.25, 382.57 32 M382.57 32 C380.44 277.55, 380.18 523.26, 382.57 708.23 M382.57 32 C380.6 291.97, 380.51 551.45, 382.57 708.23 M382.57 708.23 C384.29 730.39, 373.87 739.74, 350.57 740.23 M382.57 708.23 C380.99 728.11, 370.5 740.51, 350.57 740.23 M350.57 740.23 C228.59 742.58, 106.3 742.03, 32 740.23 M350.57 740.23 C225.55 740.61, 101.13 740.52, 32 740.23 M32 740.23 C9.57 740.28, 1.73 728.47, 0 708.23 M32 740.23 C8.64 741.11, -1.55 728.14, 0 708.23 M0 708.23 C-1.65 478.15, -1.49 247.92, 0 32 M0 708.23 C0.12 526.84, 0.34 345.59, 0 32 M0 32 C-1.04 10.29, 8.99 -0.01, 32 0 M0 32 C-2.01 11.86, 10.59 0.55, 32 0" stroke="#1e1e1e" stroke-width="1" fill="none"></path></g><g stroke-linecap="round"><g transform="translate(6362.674304575896 4283.686339453196) rotate(0 277.4297427744973 -0.000286967878764699)"><path d="M0.03 -0.03 C92.51 -0.01, 462.5 -0.02, 554.99 -0.01 M-0.13 -0.16 C92.32 -0.12, 462.37 0.11, 554.87 0.16" stroke="#1e1e1e" stroke-width="1" fill="none"></path></g><g transform="translate(6362.674304575896 4283.686339453196) rotate(0 277.4297427744973 -0.000286967878764699)"><path d="M526.67 10.41 C536.98 6.61, 547.35 2.8, 554.87 0.16 M526.67 10.41 C535.56 7.23, 544.31 4.13, 554.87 0.16" stroke="#1e1e1e" stroke-width="1" fill="none"></path></g><g transform="translate(6362.674304575896 4283.686339453196) rotate(0 277.4297427744973 -0.000286967878764699)"><path d="M526.69 -10.11 C536.97 -6.38, 547.33 -2.66, 554.87 0.16 M526.69 -10.11 C535.54 -6.91, 544.28 -3.64, 554.87 0.16" stroke="#1e1e1e" stroke-width="1" fill="none"></path></g></g><mask></mask><g stroke-linecap="round" transform="translate(7031.537752606409 3899.797446717848) rotate(0 193.9514700464233 394.1064678271639)"><path d="M32 0 C135.16 -0.16, 238.75 -1.13, 355.9 0 M32 0 C153.47 -0.08, 273.56 -0.46, 355.9 0 M355.9 0 C375.96 -0.36, 387.35 11.17, 387.9 32 M355.9 0 C378.69 -1.69, 387.57 10.25, 387.9 32 M387.9 32 C387.12 238.05, 387 444.81, 387.9 756.21 M387.9 32 C386.3 287.59, 386.35 542.75, 387.9 756.21 M387.9 756.21 C386.53 776.29, 376.02 788.46, 355.9 788.21 M387.9 756.21 C389.85 778.9, 378.51 789.14, 355.9 788.21 M355.9 788.21 C234.3 790.38, 110.47 788.79, 32 788.21 M355.9 788.21 C264.68 787.52, 174.83 787.12, 32 788.21 M32 788.21 C8.91 788.98, -1.35 776.31, 0 756.21 M32 788.21 C11.59 789.36, -1.77 776.69, 0 756.21 M0 756.21 C0.25 551.51, 1.02 346.49, 0 32 M0 756.21 C0.19 585.31, 0.06 414.56, 0 32 M0 32 C-1.75 11.71, 10.6 0.48, 32 0 M0 32 C1.84 11.31, 11.65 -1.44, 32 0" stroke="#1e1e1e" stroke-width="1" fill="none"></path></g><g stroke-linecap="round" transform="translate(7539.291936242758 3910.379935205799) rotate(0 178.47686134152082 388.1538180526911)"><path d="M32 0 C116.74 -0.84, 202.26 1.77, 324.95 0 M32 0 C127.77 -1.58, 224.13 -1.91, 324.95 0 M324.95 0 C345.74 0.51, 358.22 9.2, 356.95 32 M324.95 0 C345.96 -0.41, 356.61 9.51, 356.95 32 M356.95 32 C359.9 239.37, 359.77 446.91, 356.95 744.31 M356.95 32 C359.8 233.69, 359.13 435.31, 356.95 744.31 M356.95 744.31 C355.74 765.89, 347.98 777.49, 324.95 776.31 M356.95 744.31 C358.23 766.57, 348.11 777.67, 324.95 776.31 M324.95 776.31 C225.73 777.98, 125.53 778.92, 32 776.31 M324.95 776.31 C246.99 775.96, 167.08 776.66, 32 776.31 M32 776.31 C9.32 775.07, 0.8 766.64, 0 744.31 M32 776.31 C8.9 775.45, -0.4 765.24, 0 744.31 M0 744.31 C1.43 568.49, 0.4 393.67, 0 32 M0 744.31 C1.14 598.32, 1.13 452.54, 0 32 M0 32 C-0.06 11.15, 12.27 0.56, 32 0 M0 32 C0.99 9.23, 9.49 0.51, 32 0" stroke="#1e1e1e" stroke-width="1" fill="none"></path></g><g stroke-linecap="round" transform="translate(8046.498749784905 3920.7799669956826) rotate(0 191.2830408371774 370.1134120312047)"><path d="M32 0 C119.09 3.28, 204.51 3.14, 350.57 0 M32 0 C153.01 -0.71, 274.73 -0.4, 350.57 0 M350.57 0 C373.17 -1.47, 382.28 10.31, 382.57 32 M350.57 0 C371.56 -1.15, 382.37 12.6, 382.57 32 M382.57 32 C384.85 189.55, 384.29 348.87, 382.57 708.23 M382.57 32 C384.96 262.68, 384.99 493.9, 382.57 708.23 M382.57 708.23 C384.26 730.74, 373.01 741.04, 350.57 740.23 M382.57 708.23 C384.39 730.92, 372.82 742.34, 350.57 740.23 M350.57 740.23 C225.45 740.29, 100.43 738.95, 32 740.23 M350.57 740.23 C253.49 739.28, 157.18 738.57, 32 740.23 M32 740.23 C11.47 741.23, -1.54 728.81, 0 708.23 M32 740.23 C10.26 739.82, -1.24 728.82, 0 708.23 M0 708.23 C-2.24 515.2, -2.49 321.97, 0 32 M0 708.23 C1.92 518.15, 2.26 327.75, 0 32 M0 32 C1.6 11.22, 11.53 -1.25, 32 0 M0 32 C-1.18 11.18, 9.78 1.89, 32 0" stroke="#1e1e1e" stroke-width="1" fill="none"></path></g><g transform="translate(4831.931029046051 3594.5554629104013) rotate(0 120.48275756835938 103.65245880340967)"><text x="0" y="0" font-family="Virgil, Segoe UI Emoji" font-size="165.8439340854556px" fill="#1e1e1e" text-anchor="start" style="white-space: pre;" direction="ltr" dominant-baseline="text-before-edge">80</text></g><g transform="translate(5294.046687180914 3591.279196331631) rotate(0 116.08799743652344 103.65245880340967)"><text x="0" y="0" font-family="Virgil, Segoe UI Emoji" font-size="165.8439340854556px" fill="#1e1e1e" text-anchor="start" style="white-space: pre;" direction="ltr" dominant-baseline="text-before-edge">20</text></g><g transform="translate(5830.8481257673375 3601.7601832101022) rotate(0 110.11775207519531 103.65245880340967)"><text x="0" y="0" font-family="Virgil, Segoe UI Emoji" font-size="165.8439340854556px" fill="#1e1e1e" text-anchor="start" style="white-space: pre;" direction="ltr" dominant-baseline="text-before-edge">40</text></g><g transform="translate(7099.338731168338 3570.2054477047595) rotate(0 110.11775207519531 103.65245880340967)"><text x="0" y="0" font-family="Virgil, Segoe UI Emoji" font-size="165.8439340854556px" fill="#1e1e1e" text-anchor="start" style="white-space: pre;" direction="ltr" dominant-baseline="text-before-edge">40</text></g><g transform="translate(7559.151441481952 3551.1968707579704) rotate(0 116.08799743652344 103.65245880340967)"><text x="0" y="0" font-family="Virgil, Segoe UI Emoji" font-size="165.8439340854556px" fill="#1e1e1e" text-anchor="start" style="white-space: pre;" direction="ltr" dominant-baseline="text-before-edge">20</text></g><g transform="translate(8064.367689037937 3579.226780998687) rotate(0 120.48275756835938 103.65245880340967)"><text x="0" y="0" font-family="Virgil, Segoe UI Emoji" font-size="165.8439340854556px" fill="#1e1e1e" text-anchor="start" style="white-space: pre;" direction="ltr" dominant-baseline="text-before-edge">80</text></g><g transform="translate(581.1241021367641 2946.706362022229) rotate(0 1140.07373046875 141.40876699603814)"><text x="0" y="0" font-family="Virgil, Segoe UI Emoji" font-size="226.25402719366082px" fill="#1e1e1e" text-anchor="start" style="white-space: pre;" direction="ltr" dominant-baseline="text-before-edge">fixed-based reversal</text></g><g transform="translate(5728.572240990847 3025.8186626123334) rotate(0 1140.07373046875 141.40876699603814)"><text x="0" y="0" font-family="Virgil, Segoe UI Emoji" font-size="226.25402719366082px" fill="#1e1e1e" text-anchor="start" style="white-space: pre;" direction="ltr" dominant-baseline="text-before-edge">fixed-based reversal</text></g><g transform="translate(2982.9446599287985 4869.970041794621) rotate(0 2412.164306640625 424.2263009881141)"><text x="0" y="0" font-family="Virgil, Segoe UI Emoji" font-size="226.25402719366082px" fill="#1e1e1e" text-anchor="start" style="white-space: pre;" direction="ltr" dominant-baseline="text-before-edge">contingency shift</text><text x="0" y="282.81753399207605" font-family="Virgil, Segoe UI Emoji" font-size="226.25402719366082px" fill="#1e1e1e" text-anchor="start" style="white-space: pre;" direction="ltr" dominant-baseline="text-before-edge">(probability re-assignment)</text><text x="0" y="565.6350679841521" font-family="Virgil, Segoe UI Emoji" font-size="226.25402719366082px" fill="#1e1e1e" text-anchor="start" style="white-space: pre;" direction="ltr" dominant-baseline="text-before-edge">new timeline variable property of probability</text></g><g transform="translate(3205.2281819708223 2993.4987767203393) rotate(0 1140.07373046875 141.40876699603814)"><text x="0" y="0" font-family="Virgil, Segoe UI Emoji" font-size="226.25402719366082px" fill="#1e1e1e" text-anchor="start" style="white-space: pre;" direction="ltr" dominant-baseline="text-before-edge">fixed-based reversal</text></g><g transform="translate(496.7285585976497 2534.7868662527953) rotate(0 1143.5806884765625 282.81753399207605)"><text x="0" y="0" font-family="Virgil, Segoe UI Emoji" font-size="226.25402719366082px" fill="#1e1e1e" text-anchor="start" style="white-space: pre;" direction="ltr" dominant-baseline="text-before-edge">randomizeBestDeck()</text><text x="0" y="282.81753399207605" font-family="Virgil, Segoe UI Emoji" font-size="226.25402719366082px" fill="#1e1e1e" text-anchor="start" style="white-space: pre;" direction="ltr" dominant-baseline="text-before-edge"></text></g><g transform="translate(3147.5466668379668 2555.759662853503) rotate(0 1143.5806884765625 141.40876699603814)"><text x="0" y="0" font-family="Virgil, Segoe UI Emoji" font-size="226.25402719366082px" fill="#1e1e1e" text-anchor="start" style="white-space: pre;" direction="ltr" dominant-baseline="text-before-edge">randomizeBestDeck()</text></g><g transform="translate(5781.439785244837 2569.682075237746) rotate(0 1143.5806884765625 141.40876699603814)"><text x="0" y="0" font-family="Virgil, Segoe UI Emoji" font-size="226.25402719366082px" fill="#1e1e1e" text-anchor="start" style="white-space: pre;" direction="ltr" dominant-baseline="text-before-edge">randomizeBestDeck()</text></g><g transform="translate(3248.429436898743 10) rotate(0 1057.153076171875 282.8175339920763)"><text x="0" y="0" font-family="Virgil, Segoe UI Emoji" font-size="226.25402719366082px" fill="#1e1e1e" text-anchor="start" style="white-space: pre;" direction="ltr" dominant-baseline="text-before-edge">probability reversal</text><text x="0" y="282.81753399207605" font-family="Virgil, Segoe UI Emoji" font-size="226.25402719366082px" fill="#1e1e1e" text-anchor="start" style="white-space: pre;" direction="ltr" dominant-baseline="text-before-edge"></text></g><g stroke-linecap="round"><g transform="translate(4053.4163703968225 521.4363312302785) rotate(0 -106.09995633931067 129.72819650244628)"><path d="M-0.73 -1.03 C-36.14 42.25, -177.9 215.56, -213.29 259.04 M1.09 1.05 C-33.87 44.57, -175.19 217.69, -211.07 260.48" stroke="#1e1e1e" stroke-width="1" fill="none"></path></g><g transform="translate(4053.4163703968225 521.4363312302785) rotate(0 -106.09995633931067 129.72819650244628)"><path d="M-201.04 232.21 C-205.19 237.06, -206.09 243.93, -211.07 260.48 M-201.04 232.21 C-204.49 242.43, -208.89 251.23, -211.07 260.48" stroke="#1e1e1e" stroke-width="1" fill="none"></path></g><g transform="translate(4053.4163703968225 521.4363312302785) rotate(0 -106.09995633931067 129.72819650244628)"><path d="M-185.21 245.27 C-192.91 247.04, -197.44 250.92, -211.07 260.48 M-185.21 245.27 C-194.14 250.77, -204.11 254.98, -211.07 260.48" stroke="#1e1e1e" stroke-width="1" fill="none"></path></g></g><mask></mask><g stroke-linecap="round"><g transform="translate(4435.430318368562 529.178897301108) rotate(0 105.79627938467956 134.78499563114474)"><path d="M-0.94 -0.56 C34.45 44.31, 177.04 225.03, 212.53 270.13 M0.77 1.76 C36.01 46.19, 176.7 223.9, 211.77 268.26" stroke="#1e1e1e" stroke-width="1" fill="none"></path></g><g transform="translate(4435.430318368562 529.178897301108) rotate(0 105.79627938467956 134.78499563114474)"><path d="M186.23 252.52 C193.52 258.3, 203.37 262.44, 211.77 268.26 M186.23 252.52 C194.4 258.61, 203.67 263.94, 211.77 268.26" stroke="#1e1e1e" stroke-width="1" fill="none"></path></g><g transform="translate(4435.430318368562 529.178897301108) rotate(0 105.79627938467956 134.78499563114474)"><path d="M202.32 239.79 C204.61 249.48, 209.35 257.66, 211.77 268.26 M202.32 239.79 C204.98 250, 208.87 259.59, 211.77 268.26" stroke="#1e1e1e" stroke-width="1" fill="none"></path></g></g><mask></mask><g transform="translate(1779.0111522729676 931.8625914424056) rotate(0 1367.228759765625 282.8175339920758)"><text x="0" y="0" font-family="Virgil, Segoe UI Emoji" font-size="226.25402719366082px" fill="#1e1e1e" text-anchor="start" style="white-space: pre;" direction="ltr" dominant-baseline="text-before-edge">fixed-based reversal</text><text x="0" y="282.81753399207605" font-family="Virgil, Segoe UI Emoji" font-size="226.25402719366082px" fill="#1e1e1e" text-anchor="start" style="white-space: pre;" direction="ltr" dominant-baseline="text-before-edge">(unexpected uncertainty)</text></g><g transform="translate(4742.410112440577 928.1160027894566) rotate(0 1521.644287109375 282.8175339920763)"><text x="0" y="0" font-family="Virgil, Segoe UI Emoji" font-size="226.25402719366082px" fill="#1e1e1e" text-anchor="start" style="white-space: pre;" direction="ltr" dominant-baseline="text-before-edge">performance-based reversal</text><text x="0" y="282.81753399207605" font-family="Virgil, Segoe UI Emoji" font-size="226.25402719366082px" fill="#1e1e1e" text-anchor="start" style="white-space: pre;" direction="ltr" dominant-baseline="text-before-edge">(unexpected uncertainy)</text></g></svg>